<svg xmlns="http://www.w3.org/2000/svg" xmlns:xlink="http://www.w3.org/1999/xlink" width="14" height="15" viewBox="0 0 14 15"><defs><path id="a" d="M0 .023h13.983v14.411H0z"/></defs><g fill="none" fill-rule="evenodd" transform="translate(0 .007)"><mask id="b" fill="#fff"><use xlink:href="#a"/></mask><g fill="#FEFEFE" mask="url(#b)"><path d="M9.915 13.356c.795 0 1.545-.314 2.113-.883.567-.57.88-1.322.88-2.12v-6.25c0-.796-.313-1.55-.88-2.118a2.966 2.966 0 0 0-2.113-.883H4.068c-.795 0-1.545.313-2.113.883a2.985 2.985 0 0 0-.88 2.119v6.25c0 .797.312 1.55.88 2.12a2.972 2.972 0 0 0 2.113.882h5.847zm0 1.078H4.068C1.83 14.434 0 12.598 0 10.354v-6.25C0 1.86 1.83.024 4.068.024h5.847c2.237 0 4.068 1.836 4.068 4.08v6.25c0 2.244-1.83 4.08-4.068 4.08z"/><path d="M6.995 4.647a2.525 2.525 0 0 0-2.522 2.53 2.525 2.525 0 0 0 2.522 2.528 2.525 2.525 0 0 0 2.52-2.529 2.525 2.525 0 0 0-2.52-2.529m3.869 2.526a3.856 3.856 0 0 1-3.85 3.863 3.856 3.856 0 0 1-3.851-3.863 3.856 3.856 0 0 1 3.85-3.862c2.127 0 3.85 1.73 3.85 3.862m.974-3.923a.913.913 0 0 1-.912.915.913.913 0 0 1-.911-.914c0-.505.408-.915.911-.915.504 0 .912.41.912.915"/></g></g></svg>