<svg id="Layer_1" data-name="Layer 1" xmlns="http://www.w3.org/2000/svg" viewBox="0 0 300 300"><defs><style>.cls-1{fill:#fff}</style></defs><title>twitter-bird-light-bgs</title><path class="cls-1" d="M300 57a123 123 0 0 1-35.35 9.69 61.71 61.71 0 0 0 27.06-34.09 123 123 0 0 1-39.08 14.93 61.6 61.6 0 0 0-104.88 56.14A174.68 174.68 0 0 1 20.89 39.36a61.61 61.61 0 0 0 19 82.18 61.24 61.24 0 0 1-27.87-7.7v.77A61.59 61.59 0 0 0 61.42 175a61.74 61.74 0 0 1-27.79 1 61.6 61.6 0 0 0 57.49 42.74 123.47 123.47 0 0 1-76.44 26.35A124.85 124.85 0 0 1 0 244.25a174.24 174.24 0 0 0 94.35 27.65c113.21 0 175.12-93.78 175.12-175.12q0-4-.18-8A125.21 125.21 0 0 0 300 57z"/></svg>