<svg xmlns="http://www.w3.org/2000/svg" xmlns:xlink="http://www.w3.org/1999/xlink" width="16" height="17" viewBox="0 0 16 17"><defs><path id="a" d="M0 .028h15.987v16.254H0z"/></defs><g fill="none" fill-rule="evenodd"><g transform="translate(0 .01)"><mask id="b" fill="#fff"><use xlink:href="#a"/></mask><path fill="#FEFEFE" d="M8.11 14.606c-2.025 0-3.646-1.101-3.646-1.101l-2.488.816.808-2.422s-1.29-1.796-1.29-3.948c0-3.676 2.962-6.656 6.616-6.656 3.655 0 6.617 2.98 6.617 6.656 0 3.675-2.962 6.655-6.617 6.655m0-14.578C3.76.028.234 3.575.234 7.95c0 2.171 1.143 4.112 1.143 4.112L0 16.283l4.316-1.388s1.602.978 3.794.978c4.35 0 7.877-3.547 7.877-7.922 0-4.376-3.526-7.923-7.877-7.923" mask="url(#b)"/></g><path fill="#FEFEFE" d="M5.111 4.511s.213-.135.324-.135h.62s.167.029.243.203c.077.174.6 1.41.639 1.506.039.096.14.332-.023.543-.163.211-.503.606-.503.606s-.135.122-.018.317c.116.194.528.836 1.065 1.32.538.485 1.196.842 1.525.95.328.109.4-.036.526-.199l.517-.66s.135-.199.4-.077c.265.122 1.556.751 1.556.751s.157.027.166.204c.01.176.117.704-.35 1.212-.468.508-1.463.743-1.934.61-.47-.132-2.028-.542-3.044-1.495-1.015-.952-1.838-1.955-2.174-2.695-.337-.74-.318-1.178-.3-1.385.02-.207.128-1.165.765-1.576"/></g></svg>