<svg xmlns="http://www.w3.org/2000/svg" xmlns:xlink="http://www.w3.org/1999/xlink" width="15" height="15" viewBox="0 0 15 15">
    <defs>
        <path id="a" d="M0 .016h3.463v14.01H0z"/>
        <path id="c" d="M.064.078H9.38v9.59H.064z"/>
    </defs>
    <g fill="none" fill-rule="evenodd">
        <g transform="translate(0 .12)">
            <mask id="b" fill="#fff">
                <use xlink:href="#a"/>
            </mask>
            <path fill="#FFF" d="M1.732.016c.955 0 1.731.756 1.731 1.686 0 .931-.776 1.687-1.73 1.687C.774 3.389 0 2.633 0 1.702 0 .772.775.016 1.732.016zM.238 14.026h2.987V4.668H.238v9.358z" mask="url(#b)"/>
        </g>
        <g transform="translate(5.035 4.478)">
            <mask id="d" fill="#fff">
                <use xlink:href="#c"/>
            </mask>
            <path fill="#FFF" d="M.064.31H2.93v1.28h.04C3.368.852 4.342.077 5.796.077c3.024 0 3.583 1.938 3.583 4.458v5.133H6.394V5.118c0-1.085-.02-2.481-1.552-2.481-1.555 0-1.793 1.182-1.793 2.402v4.63H.064V.31z" mask="url(#d)"/>
        </g>
    </g>
</svg>
